<svg width="16" height="16" viewBox="0 0 16 16" fill="none" xmlns="http://www.w3.org/2000/svg">
<path opacity="0.4" d="M14 1.33334V9.40001C14 10.6667 13.3333 11.3333 12.0667 11.3333H3.93333C2.66666 11.3333 2 10.6667 2 9.40001V1.33334H14Z" fill="#292D32"/>
<path d="M14.6668 1.83334H1.3335C1.06016 1.83334 0.833496 1.60667 0.833496 1.33334C0.833496 1.06 1.06016 0.833336 1.3335 0.833336H14.6668C14.9402 0.833336 15.1668 1.06 15.1668 1.33334C15.1668 1.60667 14.9402 1.83334 14.6668 1.83334Z" fill="#292D32"/>
<path d="M11.1135 14.8933C11.0269 15.0667 10.8468 15.1667 10.6668 15.1667C10.5935 15.1667 10.5135 15.1467 10.4469 15.1133L8.00018 13.8933L5.5535 15.1133C5.48683 15.1467 5.40684 15.1667 5.33351 15.1667C5.15351 15.1667 4.9735 15.0667 4.88683 14.8933C4.76017 14.64 4.86019 14.34 5.11352 14.22L7.50018 13.0267V11.3333H8.50018V13.0267L10.8868 14.22C11.1402 14.34 11.2402 14.64 11.1135 14.8933Z" fill="#292D32"/>
<path d="M4.99979 7.83332C4.85979 7.83332 4.71313 7.77333 4.61313 7.65333C4.43313 7.44 4.46645 7.12666 4.67978 6.94666L6.7798 5.19333C6.97313 5.03333 7.21978 4.96666 7.45312 5.00666C7.69312 5.04666 7.89979 5.19331 8.02646 5.40665L8.72645 6.57331L10.6798 4.94666C10.8931 4.76666 11.2064 4.79998 11.3864 5.01331C11.5664 5.22665 11.5331 5.53998 11.3198 5.71998L9.21978 7.47332C9.02645 7.63332 8.77979 7.69998 8.54646 7.65998C8.30646 7.61998 8.09978 7.47333 7.97312 7.26L7.27312 6.09333L5.3198 7.71998C5.22646 7.79331 5.11312 7.83332 4.99979 7.83332Z" fill="#292D32"/>
</svg>
