<svg width="16" height="16" viewBox="0 0 16 16" fill="none" xmlns="http://www.w3.org/2000/svg">
<path opacity="0.4" d="M14 1.33333V9.4C14 10.6667 13.3333 11.3333 12.0667 11.3333H3.93333C2.66666 11.3333 2 10.6667 2 9.4V1.33333H14Z" fill="#1A1AFF"/>
<path d="M14.6668 1.83333H1.3335C1.06016 1.83333 0.833496 1.60666 0.833496 1.33333C0.833496 1.05999 1.06016 0.833328 1.3335 0.833328H14.6668C14.9402 0.833328 15.1668 1.05999 15.1668 1.33333C15.1668 1.60666 14.9402 1.83333 14.6668 1.83333Z" fill="#1A1AFF"/>
<path d="M11.1135 14.8933C11.0269 15.0667 10.8468 15.1667 10.6668 15.1667C10.5935 15.1667 10.5135 15.1467 10.4469 15.1133L8.00018 13.8933L5.5535 15.1133C5.48683 15.1467 5.40684 15.1667 5.33351 15.1667C5.15351 15.1667 4.9735 15.0667 4.88683 14.8933C4.76017 14.64 4.86019 14.34 5.11352 14.22L7.50018 13.0267V11.3333H8.50018V13.0267L10.8868 14.22C11.1402 14.34 11.2402 14.64 11.1135 14.8933Z" fill="#1A1AFF"/>
<path d="M4.99979 7.83333C4.85979 7.83333 4.71313 7.77334 4.61313 7.65334C4.43313 7.44 4.46645 7.12667 4.67978 6.94667L6.7798 5.19334C6.97313 5.03334 7.21978 4.96667 7.45312 5.00667C7.69312 5.04667 7.89979 5.19332 8.02646 5.40665L8.72645 6.57332L10.6798 4.94667C10.8931 4.76667 11.2064 4.79999 11.3864 5.01332C11.5664 5.22666 11.5331 5.53999 11.3198 5.71999L9.21978 7.47332C9.02645 7.63332 8.77979 7.69999 8.54646 7.65999C8.30646 7.61999 8.09978 7.47334 7.97312 7.26001L7.27312 6.09334L5.3198 7.71999C5.22646 7.79332 5.11312 7.83333 4.99979 7.83333Z" fill="#1A1AFF"/>
</svg>
