<svg width="21" height="20" viewBox="0 0 21 20" fill="none" xmlns="http://www.w3.org/2000/svg">
<path d="M17.8077 0.833984H15.3577C14.2993 0.833984 13.666 1.46732 13.666 2.52565V4.97565C13.666 6.03398 14.2993 6.66732 15.3577 6.66732H17.8077C18.866 6.66732 19.4993 6.03398 19.4993 4.97565V2.52565C19.4993 1.46732 18.866 0.833984 17.8077 0.833984ZM17.991 3.59232C17.891 3.69232 17.7577 3.74232 17.6243 3.74232C17.491 3.74232 17.3577 3.69232 17.2577 3.59232L17.1077 3.44232V5.30898C17.1077 5.60065 16.8743 5.83398 16.5827 5.83398C16.291 5.83398 16.0577 5.60065 16.0577 5.30898V3.44232L15.9077 3.59232C15.7077 3.79232 15.3743 3.79232 15.1743 3.59232C14.9743 3.39232 14.9743 3.05898 15.1743 2.85898L16.216 1.81732C16.2577 1.77565 16.316 1.74232 16.3743 1.71732C16.391 1.70898 16.4077 1.70898 16.4243 1.70065C16.466 1.68398 16.5077 1.67565 16.5577 1.67565C16.5743 1.67565 16.591 1.67565 16.6077 1.67565C16.666 1.67565 16.716 1.68398 16.7743 1.70898C16.7827 1.70898 16.7827 1.70898 16.791 1.70898C16.8493 1.73398 16.8993 1.76732 16.941 1.80898C16.9493 1.81732 16.9493 1.81732 16.9577 1.81732L17.9993 2.85898C18.1993 3.05898 18.1993 3.39232 17.991 3.59232Z" fill="#292D32"/>
<path opacity="0.4" d="M18.6667 6.47565V7.50065H2V6.28398C2 4.37565 3.55 2.83398 5.45833 2.83398H13.6667V4.97565C13.6667 6.03398 14.3 6.66732 15.3583 6.66732H17.8083C18.1417 6.66732 18.425 6.60898 18.6667 6.47565Z" fill="#292D32"/>
<path d="M2 7.5V13.7167C2 15.625 3.55 17.1667 5.45833 17.1667H15.2083C17.1167 17.1667 18.6667 15.625 18.6667 13.7167V7.5H2ZM7 14.375H5.33333C4.99167 14.375 4.70833 14.0917 4.70833 13.75C4.70833 13.4083 4.99167 13.125 5.33333 13.125H7C7.34167 13.125 7.625 13.4083 7.625 13.75C7.625 14.0917 7.34167 14.375 7 14.375ZM12.4167 14.375H9.08333C8.74167 14.375 8.45833 14.0917 8.45833 13.75C8.45833 13.4083 8.74167 13.125 9.08333 13.125H12.4167C12.7583 13.125 13.0417 13.4083 13.0417 13.75C13.0417 14.0917 12.7583 14.375 12.4167 14.375Z" fill="#292D32"/>
</svg>
