<svg width="143" height="116" viewBox="0 0 143 116" fill="none" xmlns="http://www.w3.org/2000/svg">
<path d="M71.618 101.6C99.618 101.6 122.318 78.9 122.318 50.8C122.318 22.7 99.618 0 71.618 0C43.618 0 20.918 22.7 20.918 50.8C20.918 78.9 43.618 101.6 71.618 101.6Z" fill="#EAEEF9"/>
<path d="M128.12 29.8992C130.384 29.8992 132.22 28.0636 132.22 25.7992C132.22 23.5348 130.384 21.6992 128.12 21.6992C125.855 21.6992 124.02 23.5348 124.02 25.7992C124.02 28.0636 125.855 29.8992 128.12 29.8992Z" fill="#EAEEF9"/>
<path d="M134.12 13.7992C135.667 13.7992 136.92 12.5456 136.92 10.9992C136.92 9.45282 135.667 8.19922 134.12 8.19922C132.574 8.19922 131.32 9.45282 131.32 10.9992C131.32 12.5456 132.574 13.7992 134.12 13.7992Z" fill="#EAEEF9"/>
<path d="M17.5187 32.7992C19.0651 32.7992 20.3187 31.5456 20.3187 29.9992C20.3187 28.4528 19.0651 27.1992 17.5187 27.1992C15.9724 27.1992 14.7188 28.4528 14.7188 29.9992C14.7188 31.5456 15.9724 32.7992 17.5187 32.7992Z" fill="#EAEEF9"/>
<path d="M22.7195 93.7008C25.5914 93.7008 27.9195 91.3727 27.9195 88.5008C27.9195 85.6289 25.5914 83.3008 22.7195 83.3008C19.8477 83.3008 17.5195 85.6289 17.5195 88.5008C17.5195 91.3727 19.8477 93.7008 22.7195 93.7008Z" fill="#EAEEF9"/>
<g filter="url(#filter0_d_5560_83871)">
<path d="M111.935 82.8694H31.5024C26.6086 82.8694 22.7188 78.9795 22.7188 74.0858V27.7836C22.7188 22.8899 26.6086 19 31.5024 19H111.935C116.829 19 120.719 22.8899 120.719 27.7836V74.0858C120.719 78.9795 116.829 82.8694 111.935 82.8694Z" fill="url(#paint0_linear_5560_83871)"/>
</g>
<path d="M47.5645 68.4392H34.7655C33.6362 68.4392 32.7578 67.5608 32.7578 66.4315C32.7578 65.3022 33.6362 64.4238 34.7655 64.4238H47.5645C48.6938 64.4238 49.5722 65.3022 49.5722 66.4315C49.5722 67.5608 48.6938 68.4392 47.5645 68.4392Z" fill="#D5DDEA"/>
<path d="M68.2676 68.4392H55.4686C54.3393 68.4392 53.4609 67.5608 53.4609 66.4315C53.4609 65.3022 54.3393 64.4238 55.4686 64.4238H68.2676C69.3969 64.4238 70.2753 65.3022 70.2753 66.4315C70.2753 67.5608 69.3969 68.4392 68.2676 68.4392Z" fill="#D5DDEA"/>
<path d="M88.9707 68.4392H76.1717C75.0424 68.4392 74.1641 67.5608 74.1641 66.4315C74.1641 65.3022 75.0424 64.4238 76.1717 64.4238H88.9707C90.1 64.4238 90.9784 65.3022 90.9784 66.4315C90.9784 67.5608 90.1 68.4392 88.9707 68.4392Z" fill="#D5DDEA"/>
<path d="M109.678 68.4392H96.8788C95.7495 68.4392 94.8711 67.5608 94.8711 66.4315C94.8711 65.3022 95.7495 64.4238 96.8788 64.4238H109.678C110.807 64.4238 111.685 65.3022 111.685 66.4315C111.685 67.5608 110.807 68.4392 109.678 68.4392Z" fill="#D5DDEA"/>
<path d="M105.033 44.3467C109.191 44.3467 112.562 40.9759 112.562 36.8179C112.562 32.6598 109.191 29.2891 105.033 29.2891C100.875 29.2891 97.5039 32.6598 97.5039 36.8179C97.5039 40.9759 100.875 44.3467 105.033 44.3467Z" fill="#989FB0"/>
<path d="M95.1226 44.3467C99.2806 44.3467 102.651 40.9759 102.651 36.8179C102.651 32.6598 99.2806 29.2891 95.1226 29.2891C90.9645 29.2891 87.5938 32.6598 87.5938 36.8179C87.5938 40.9759 90.9645 44.3467 95.1226 44.3467Z" fill="#D5DDEA"/>
<path d="M48.6938 46.7306H34.64C33.6362 46.7306 32.7578 45.8523 32.7578 44.8484V35.8138C32.7578 34.81 33.6362 33.9316 34.64 33.9316H48.5683C49.5722 33.9316 50.4505 34.81 50.4505 35.8138V44.8484C50.576 45.8523 49.6976 46.7306 48.6938 46.7306Z" fill="#D5DDEA"/>
<path d="M96.6417 85.4346L112.979 59.5774C114.757 57.1513 118.481 57.1513 120.259 59.5774L136.596 85.4346C138.319 87.7529 136.596 91.0417 133.651 91.0417H99.6424C96.6417 90.9878 94.919 87.7529 96.6417 85.4346Z" fill="url(#paint1_linear_5560_83871)"/>
<path d="M116.621 66.1973C115.064 66.1973 113.853 67.5658 113.969 69.1724L114.833 78.8117C114.891 79.7637 115.698 80.5372 116.621 80.5372C117.543 80.5372 118.351 79.7637 118.408 78.8117L119.273 69.1724C119.388 67.5063 118.178 66.1973 116.621 66.1973Z" fill="white"/>
<path d="M116.619 82.3223C115.466 82.3223 114.543 83.2743 114.543 84.4643C114.543 85.6544 115.466 86.6064 116.619 86.6064C117.772 86.6064 118.694 85.6544 118.694 84.4643C118.694 83.2743 117.772 82.3223 116.619 82.3223Z" fill="white"/>
<defs>
<filter id="filter0_d_5560_83871" x="0.71875" y="8" width="142" height="107.869" filterUnits="userSpaceOnUse" color-interpolation-filters="sRGB">
<feFlood flood-opacity="0" result="BackgroundImageFix"/>
<feColorMatrix in="SourceAlpha" type="matrix" values="0 0 0 0 0 0 0 0 0 0 0 0 0 0 0 0 0 0 127 0" result="hardAlpha"/>
<feOffset dy="11"/>
<feGaussianBlur stdDeviation="11"/>
<feColorMatrix type="matrix" values="0 0 0 0 0.397708 0 0 0 0 0.47749 0 0 0 0 0.575 0 0 0 0.27 0"/>
<feBlend mode="normal" in2="BackgroundImageFix" result="effect1_dropShadow_5560_83871"/>
<feBlend mode="normal" in="SourceGraphic" in2="effect1_dropShadow_5560_83871" result="shape"/>
</filter>
<linearGradient id="paint0_linear_5560_83871" x1="71.6868" y1="17.5226" x2="71.6868" y2="83.558" gradientUnits="userSpaceOnUse">
<stop stop-color="#FDFEFF"/>
<stop offset="0.9964" stop-color="#ECF0F5"/>
</linearGradient>
<linearGradient id="paint1_linear_5560_83871" x1="95.9381" y1="75.2749" x2="137.29" y2="75.2749" gradientUnits="userSpaceOnUse">
<stop stop-color="#B0BACC"/>
<stop offset="1" stop-color="#969EAE"/>
</linearGradient>
</defs>
</svg>
