<svg width="16" height="16" viewBox="0 0 16 16" fill="none" xmlns="http://www.w3.org/2000/svg">
<path d="M9.33366 1.51362V4.26732C9.33366 4.64069 9.33366 4.82737 9.40632 4.96998C9.47024 5.09542 9.57222 5.19741 9.69766 5.26132C9.84027 5.33398 10.027 5.33398 10.4003 5.33398H13.154M13.3337 6.65947V11.4673C13.3337 12.5874 13.3337 13.1475 13.1157 13.5753C12.9239 13.9516 12.618 14.2576 12.2416 14.4493C11.8138 14.6673 11.2538 14.6673 10.1337 14.6673H5.86699C4.74689 14.6673 4.18683 14.6673 3.75901 14.4493C3.38269 14.2576 3.07673 13.9516 2.88498 13.5753C2.66699 13.1475 2.66699 12.5874 2.66699 11.4673V4.53398C2.66699 3.41388 2.66699 2.85383 2.88498 2.426C3.07673 2.04968 3.38269 1.74372 3.75901 1.55197C4.18683 1.33398 4.74689 1.33398 5.86699 1.33398H8.00818C8.49736 1.33398 8.74195 1.33398 8.97212 1.38924C9.17619 1.43824 9.37128 1.51905 9.55023 1.6287C9.75206 1.75239 9.92501 1.92534 10.2709 2.27124L12.3964 4.39673C12.7423 4.74263 12.9153 4.91558 13.0389 5.11741C13.1486 5.29636 13.2294 5.49145 13.2784 5.69552C13.3337 5.9257 13.3337 6.17029 13.3337 6.65947Z" stroke="#1A1AFF" stroke-width="1.33333" stroke-linecap="round" stroke-linejoin="round"/>
</svg>
