<svg width="16" height="16" viewBox="0 0 16 16" fill="none" xmlns="http://www.w3.org/2000/svg">
<path d="M6.0959 13.8544V11.8098C6.09589 11.2917 6.5172 10.8708 7.03904 10.8676H8.95516C9.47933 10.8676 9.90426 11.2894 9.90426 11.8098V13.8485C9.90425 14.2979 10.2694 14.6631 10.722 14.6663H12.0293C12.6398 14.6679 13.2259 14.4282 13.6582 14.0001C14.0905 13.5721 14.3334 12.9908 14.3334 12.3847V6.57691C14.3334 6.08727 14.1148 5.62282 13.7365 5.30867L9.2954 1.78252C8.51909 1.16576 7.41033 1.18568 6.65701 1.82993L2.31142 5.30867C1.91524 5.61356 1.67845 6.07938 1.66675 6.57691V12.3788C1.66675 13.6421 2.69834 14.6663 3.97086 14.6663H5.24827C5.4662 14.6679 5.67574 14.5831 5.8304 14.4306C5.98505 14.2782 6.07203 14.0708 6.07203 13.8544H6.0959Z" fill="
#1A1AFF"/>
</svg>
