<svg width="20" height="20" viewBox="0 0 20 20" fill="none" xmlns="http://www.w3.org/2000/svg">
<path d="M10.2441 5.5886C9.91864 5.26317 9.91864 4.73553 10.2441 4.41009C10.5695 4.08466 11.0972 4.08466 11.4226 4.41009L16.4226 9.41009C16.7381 9.72558 16.7491 10.2336 16.4476 10.5625L11.8643 15.5625C11.5533 15.9017 11.0262 15.9246 10.6869 15.6136C10.3476 15.3027 10.3247 14.7755 10.6357 14.4362L14.6799 10.0244L10.2441 5.5886Z" fill="#424755"/>
<path opacity="0.3" d="M4.41091 5.5886C4.08547 5.26317 4.08547 4.73553 4.41091 4.41009C4.73634 4.08466 5.26398 4.08466 5.58942 4.41009L10.5894 9.41009C10.9049 9.72558 10.9159 10.2336 10.6145 10.5625L6.03112 15.5625C5.72013 15.9017 5.19299 15.9246 4.85372 15.6136C4.51446 15.3027 4.49154 14.7755 4.80253 14.4362L8.84671 10.0244L4.41091 5.5886Z" fill="#424755"/>
</svg>
