<svg width="16" height="16" viewBox="0 0 16 16" fill="none" xmlns="http://www.w3.org/2000/svg">
<path d="M8.33333 9.83333H6.66667C6.39333 9.83333 6.16667 9.60667 6.16667 9.33333C6.16667 9.06 6.39333 8.83333 6.66667 8.83333H8.33333C10.08 8.83333 11.5 7.41333 11.5 5.66667C11.5 3.92 10.08 2.5 8.33333 2.5H5C3.25333 2.5 1.83333 3.92 1.83333 5.66667C1.83333 6.4 2.09333 7.11333 2.56 7.67999C2.73333 7.89333 2.70667 8.20666 2.49333 8.38666C2.28 8.55999 1.96667 8.53334 1.78667 8.32001C1.16667 7.57334 0.826666 6.63333 0.826666 5.66667C0.826666 3.36667 2.69333 1.5 4.99333 1.5H8.32667C10.6267 1.5 12.4933 3.36667 12.4933 5.66667C12.4933 7.96667 10.6333 9.83333 8.33333 9.83333Z" fill="#1A1AFF"/>
<path opacity="0.4" d="M11 14.5013H7.66667C5.36667 14.5013 3.5 12.6346 3.5 10.3346C3.5 8.03464 5.36667 6.16797 7.66667 6.16797H9.33333C9.60667 6.16797 9.83333 6.39464 9.83333 6.66797C9.83333 6.9413 9.60667 7.16797 9.33333 7.16797H7.66667C5.92 7.16797 4.5 8.58797 4.5 10.3346C4.5 12.0813 5.92 13.5013 7.66667 13.5013H11C12.7467 13.5013 14.1667 12.0813 14.1667 10.3346C14.1667 9.6013 13.9067 8.88798 13.44 8.32131C13.2667 8.10798 13.2933 7.79464 13.5067 7.61464C13.72 7.43464 14.0333 7.46796 14.2133 7.68129C14.8333 8.42796 15.1733 9.36797 15.1733 10.3346C15.1667 12.6346 13.3 14.5013 11 14.5013Z" fill="#1A1AFF"/>
</svg>
