<svg width="16" height="16" viewBox="0 0 18 18" fill="none" xmlns="http://www.w3.org/2000/svg">
<path fill-rule="evenodd" clip-rule="evenodd" d="M17.3077 0C16.9253 0 16.6154 0.309957 16.6154 0.692308V3.57203C16.3438 3.29523 16.0286 3.00111 15.6695 2.70695C14.1979 1.50141 11.971 0.281612 9 0.281612C4.01198 0.281612 0 4.23836 0 9.14081C0 14.0447 4.04064 18 9 18C13.9594 18 18 14.0447 18 9.14081C18 8.75846 17.69 8.4485 17.3077 8.4485C16.9253 8.4485 16.6154 8.75846 16.6154 9.14081C16.6154 13.2578 13.2171 16.6154 9 16.6154C4.78294 16.6154 1.38462 13.2578 1.38462 9.14081C1.38462 5.02236 4.75725 1.66623 9 1.66623C11.5675 1.66623 13.4944 2.71501 14.792 3.77805C15.2326 4.13897 15.5984 4.49995 15.8891 4.81877H13.0107C12.6283 4.81877 12.3184 5.12873 12.3184 5.51108C12.3184 5.89343 12.6283 6.20339 13.0107 6.20339H17.3077C17.69 6.20339 18 5.89343 18 5.51108V0.692308C18 0.309957 17.69 0 17.3077 0Z" fill="#A3A3A3"/>
</svg>
