<svg
width="16"
height="16"
viewBox="0 0 16 16"
fill="none"
xmlns="http://www.w3.org/2000/svg"
>
<path
    opacity="0.4"
    d="M1.33325 8.58667V7.41333C1.33325 6.72 1.89992 6.14667 2.59992 6.14667C3.80659 6.14667 4.29992 5.29333 3.69325 4.24667C3.34659 3.64667 3.55325 2.86667 4.15992 2.52L5.31325 1.86C5.83992 1.54666 6.51992 1.73333 6.83325 2.26L6.90659 2.38666C7.50659 3.43333 8.49325 3.43333 9.09992 2.38666L9.17325 2.26C9.48659 1.73333 10.1666 1.54666 10.6933 1.86L11.8466 2.52C12.4533 2.86667 12.6599 3.64667 12.3133 4.24667C11.7066 5.29333 12.1999 6.14667 13.4066 6.14667C14.0999 6.14667 14.6733 6.71333 14.6733 7.41333V8.58667C14.6733 9.28 14.1066 9.85333 13.4066 9.85333C12.1999 9.85333 11.7066 10.7067 12.3133 11.7533C12.6599 12.36 12.4533 13.1333 11.8466 13.48L10.6933 14.14C10.1666 14.4533 9.48659 14.2667 9.17325 13.74L9.09992 13.6133C8.49992 12.5667 7.51325 12.5667 6.90659 13.6133L6.83325 13.74C6.51992 14.2667 5.83992 14.4533 5.31325 14.14L4.15992 13.48C3.55325 13.1333 3.34659 12.3533 3.69325 11.7533C4.29992 10.7067 3.80659 9.85333 2.59992 9.85333C1.89992 9.85333 1.33325 9.28 1.33325 8.58667Z"
    fill="#292D32"
/>
<path
    d="M7.99992 10.1667C9.19654 10.1667 10.1666 9.19661 10.1666 7.99999C10.1666 6.80338 9.19654 5.83333 7.99992 5.83333C6.8033 5.83333 5.83325 6.80338 5.83325 7.99999C5.83325 9.19661 6.8033 10.1667 7.99992 10.1667Z"
    fill="#292D32"
/>
</svg>