<svg width="100" height="160" viewBox="0 0 160 160" fill="none" xmlns="http://www.w3.org/2000/svg">
<path d="M81.1082 66.4675C60.4469 45.8089 37.7918 34.9678 30.5039 42.2529C29.7042 43.0906 29.1158 44.1065 28.7873 45.2171L28.67 45.0998L21.71 73.622L14.7794 102.059L6.56392 135.731L1.36328 157.056L32.154 145.405L71.3174 130.587L102.561 118.764L102.524 118.727C103.57 118.394 104.527 117.828 105.323 117.072C112.611 109.784 101.77 87.1288 81.1082 66.4675Z" fill="#DD1C4B"/>
<path d="M81.1079 66.4586C60.4474 45.7981 37.7915 34.9566 30.5046 42.2435C23.2178 49.5303 34.0592 72.1862 54.7197 92.8467C75.3803 113.507 98.0361 124.349 105.323 117.062C112.61 109.775 101.768 87.1191 81.1079 66.4586Z" fill="#D1E3EE"/>
<path d="M99.725 119.687C95.9944 119.752 92.2932 119.018 88.8705 117.533L63.3338 127.196L24.1571 142.001L3.14925 149.95L1.36328 157.272L32.154 145.621L71.3174 130.803L99.9915 119.954L99.725 119.687Z" fill="#B21D48"/>
<path d="M131.981 98.6279C131.661 98.6269 131.345 98.5699 131.045 98.46C117.513 93.3903 102.885 91.9688 88.6296 94.3389L79.1079 95.925C77.6505 96.1329 76.3004 95.1199 76.0925 93.6625C75.8915 92.2544 76.8315 90.9366 78.2283 90.6683L87.7526 89.069C102.931 86.5469 118.506 88.0593 132.916 93.4539C134.302 93.9517 135.021 95.4785 134.523 96.8639C134.139 97.9342 133.118 98.6426 131.981 98.6279Z" fill="#FFBF41"/>
<path d="M84.0006 82.6349C82.5285 82.6262 81.342 81.4257 81.3506 79.9536C81.3566 78.9373 81.9397 78.013 82.8544 77.5702L138.833 50.9139C140.162 50.2808 141.753 50.8453 142.386 52.1748C143.019 53.5043 142.454 55.095 141.125 55.7281L85.1468 82.3843C84.7883 82.5519 84.3968 82.6376 84.0006 82.6349Z" fill="#FFBF41"/>
<path d="M52.8269 77.303C52.4754 77.3036 52.1272 77.234 51.8033 77.0977C50.4445 76.5309 49.8025 74.9702 50.3692 73.6114V73.6111L54.2451 64.3107C60.2084 50.0613 61.5989 34.3114 58.2248 19.2376C57.879 17.8065 58.759 16.3664 60.1897 16.0205C61.6208 15.6746 63.061 16.5546 63.4068 17.9854C63.4145 18.0171 63.4215 18.0487 63.4281 18.0807C67.0427 34.2281 65.5523 51.0995 59.1631 66.3632L55.2847 75.6636C54.8708 76.6556 53.9019 77.302 52.8269 77.303Z" fill="#FFBF41"/>
<path d="M145.308 109.291C148.252 109.291 150.639 106.905 150.639 103.96C150.639 101.016 148.252 98.6289 145.308 98.6289C142.363 98.6289 139.977 101.016 139.977 103.96C139.977 106.905 142.363 109.291 145.308 109.291Z" fill="#D5557E"/>
<path d="M81.3313 34.6527C84.2756 34.6527 86.6625 32.2659 86.6625 29.3215C86.6625 26.3771 84.2756 23.9902 81.3313 23.9902C78.3869 23.9902 76 26.3771 76 29.3215C76 32.2659 78.3869 34.6527 81.3313 34.6527Z" fill="#DD95C1"/>
<path d="M57.343 10.6625C54.3985 10.6625 52.0117 8.27578 52.0117 5.33126C52.0117 2.38674 54.3985 0 57.343 0C60.2875 0 62.6742 2.38674 62.6742 5.33126C62.6742 8.27578 60.2875 10.6625 57.343 10.6625Z" fill="#7FCCCB"/>
<path d="M131.979 21.325C130.507 21.325 129.313 20.1315 129.313 18.6594V15.9938C129.313 14.5217 130.507 13.3281 131.979 13.3281C133.451 13.3281 134.644 14.5217 134.644 15.9938V18.6594C134.644 20.1315 133.451 21.325 131.979 21.325Z" fill="#2276BB"/>
<path d="M131.979 7.99688C130.507 7.99688 129.313 6.80335 129.313 5.33126V2.66563C129.313 1.19353 130.507 0 131.979 0C133.451 0 134.644 1.19353 134.644 2.66563V5.33126C134.644 6.80335 133.451 7.99688 131.979 7.99688Z" fill="#2276BB"/>
<path d="M139.976 13.3283H137.311C135.839 13.3283 134.645 12.1348 134.645 10.6627C134.645 9.19061 135.839 7.99707 137.311 7.99707H139.976C141.448 7.99707 142.642 9.19061 142.642 10.6627C142.642 12.1348 141.449 13.3283 139.976 13.3283Z" fill="#2276BB"/>
<path d="M126.648 13.3283H123.983C122.51 13.3283 121.317 12.1348 121.317 10.6627C121.317 9.19061 122.51 7.99707 123.983 7.99707H126.648C128.12 7.99707 129.314 9.19061 129.314 10.6627C129.314 12.1348 128.121 13.3283 126.648 13.3283Z" fill="#2276BB"/>
<path d="M22.5249 77.3032C22.2264 76.1623 21.9598 75.0108 21.7119 73.8379L14.7812 102.275L15.3144 108.776C16.4763 122.637 22.4306 135.66 32.1531 145.607L71.3192 130.802C71.106 130.736 70.8847 130.688 70.6715 130.616C46.9224 121.711 28.9717 101.834 22.5249 77.3032Z" fill="white"/>
<path d="M71.3196 130.803C71.1063 130.736 70.8851 130.688 70.6718 130.616C68.1062 129.645 65.5932 128.539 63.1441 127.303L27.8672 140.65C29.2047 142.384 30.6364 144.044 32.1562 145.621L71.3196 130.803Z" fill="#F6F6E7"/>
<path d="M113.322 31.9316V45.3158H99.9375V31.9316H113.322Z" fill="#C9DA53"/>
<path d="M65.3407 79.9684C63.8687 79.968 62.6754 78.7742 62.6758 77.3021C62.6761 76.547 62.9963 75.8276 63.5574 75.3222L90.2137 51.3315C91.3269 50.3682 93.0103 50.4899 93.9736 51.6031C94.9102 52.6853 94.8249 54.314 93.7803 55.2926L67.1241 79.2833C66.6349 79.7241 65.9995 79.968 65.3407 79.9684Z" fill="#FFBF41"/>
<path d="M142.643 69.3074C141.171 69.3074 139.977 68.1139 139.977 66.6418V63.9762C139.977 62.5041 141.171 61.3105 142.643 61.3105C144.115 61.3105 145.308 62.5041 145.308 63.9762V66.6418C145.308 68.1139 144.115 69.3074 142.643 69.3074Z" fill="#FFDB43"/>
<path d="M152.069 65.4018C151.361 65.4038 150.683 65.1226 150.184 64.6208L148.3 62.7362C147.277 61.6772 147.306 59.9896 148.365 58.967C149.398 57.9693 151.036 57.9693 152.069 58.967L153.953 60.8516C154.994 61.8928 154.994 63.5805 153.953 64.6214C153.453 65.1209 152.776 65.4018 152.069 65.4018Z" fill="#FFDB43"/>
<path d="M155.968 55.9787H153.303C151.831 55.9787 150.637 54.7852 150.637 53.3131C150.637 51.841 151.831 50.6475 153.303 50.6475H155.968C157.441 50.6475 158.634 51.841 158.634 53.3131C158.634 54.7852 157.441 55.9787 155.968 55.9787Z" fill="#FFDB43"/>
<path d="M150.185 48.4401C148.713 48.4398 147.52 47.2462 147.52 45.7738C147.52 45.0671 147.801 44.3894 148.3 43.8899L150.185 42.0053C151.244 40.9823 152.931 41.0117 153.954 42.0706C154.952 43.1035 154.952 44.7412 153.954 45.7745L152.07 47.6591C151.57 48.1589 150.892 48.4401 150.185 48.4401Z" fill="#FFDB43"/>
<path d="M142.643 45.3162C141.171 45.3162 139.977 44.1227 139.977 42.6506V39.985C139.977 38.5129 141.171 37.3193 142.643 37.3193C144.115 37.3193 145.308 38.5129 145.308 39.985V42.6506C145.308 44.1227 144.115 45.3162 142.643 45.3162Z" fill="#FFDB43"/>
<path d="M135.1 48.4408C134.393 48.4408 133.715 48.1596 133.215 47.6598L131.331 45.7752C130.308 44.7163 130.337 43.0286 131.396 42.006C132.429 41.0084 134.067 41.0084 135.1 42.006L136.985 43.8906C138.026 44.9319 138.025 46.6196 136.984 47.6605C136.484 48.16 135.807 48.4408 135.1 48.4408Z" fill="#FFDB43"/>
<path d="M14.6919 2.66602L18.8103 11.0121L28.0201 12.3502L21.356 18.8464L22.9287 28.0188L14.6919 23.6872L6.45512 28.0188L8.02784 18.8464L1.36377 12.3502L10.5735 11.0121L14.6919 2.66602Z" fill="#FFDB43"/>
<path d="M157.794 144.387C156.526 139.894 153.607 136.046 149.621 133.615L148.523 131.968C142.365 122.759 132.682 116.497 121.757 114.66C120.3 114.452 118.95 115.465 118.742 116.922C118.541 118.33 119.481 119.648 120.878 119.916C128.757 121.254 135.938 125.257 141.219 131.256C136.779 132.055 132.896 134.721 130.557 138.579C127.686 143.72 129.527 150.215 134.668 153.086C139.81 155.957 146.305 154.116 149.176 148.975C150.273 146.858 150.865 144.516 150.906 142.132C153.742 146.251 153.969 151.631 151.49 155.974C150.739 157.241 151.156 158.876 152.422 159.627C153.689 160.378 155.324 159.961 156.075 158.694C156.099 158.654 156.122 158.613 156.144 158.571C158.566 154.253 159.16 149.145 157.794 144.387ZM144.527 146.373C143.104 148.951 139.861 149.887 137.284 148.464C134.706 147.042 133.769 143.799 135.192 141.221C135.2 141.207 135.208 141.192 135.216 141.178C136.789 138.602 139.442 136.875 142.435 136.481C142.898 136.468 143.357 136.575 143.767 136.79C146.017 138.045 146.137 143.489 144.527 146.373Z" fill="#2BB3CE"/>
</svg>