<svg width="16" height="16" viewBox="0 0 16 16" fill="none" xmlns="http://www.w3.org/2000/svg">
<path opacity="0.4" d="M4.48714 13.134C5.03381 12.5473 5.86715 12.594 6.34715 13.234L7.02048 14.134C7.56048 14.8473 8.43382 14.8473 8.97382 14.134L9.64715 13.234C10.1271 12.594 10.9605 12.5473 11.5071 13.134C12.6938 14.4007 13.6605 13.9807 13.6605 12.2073V4.69398C13.6605 2.00732 13.0338 1.33398 10.5138 1.33398H5.47382C2.95382 1.33398 2.32715 2.00732 2.32715 4.69398V12.2007C2.33382 13.9807 3.30714 14.394 4.48714 13.134Z" fill="#A3A7AD"/>
<path d="M9.83366 7.16602H6.16699C5.89366 7.16602 5.66699 6.93935 5.66699 6.66602C5.66699 6.39268 5.89366 6.16602 6.16699 6.16602H9.83366C10.107 6.16602 10.3337 6.39268 10.3337 6.66602C10.3337 6.93935 10.107 7.16602 9.83366 7.16602Z" fill="#A3A7AD"/>
</svg>
