<svg width="21" height="20" viewBox="0 0 21 20" fill="none" xmlns="http://www.w3.org/2000/svg">
<path d="M11.2174 2.0978L11.1924 2.15613L8.77578 7.76446H6.40078C5.83411 7.76446 5.29245 7.88113 4.80078 8.08946L6.25911 4.60613L6.29245 4.5228L6.35078 4.38946C6.36745 4.33946 6.38411 4.28946 6.40911 4.2478C7.50078 1.7228 8.73411 1.1478 11.2174 2.0978Z" stroke="#292D32" stroke-width="1.5" stroke-linecap="round" stroke-linejoin="round"/>
<path d="M15.7087 7.93099C15.3337 7.81432 14.9337 7.76432 14.5337 7.76432H8.77539L11.1921 2.15599L11.2171 2.09766C11.3421 2.13932 11.4587 2.19766 11.5837 2.24766L13.4254 3.02266C14.4504 3.44766 15.1671 3.88932 15.6004 4.42266C15.6837 4.52266 15.7504 4.61432 15.8087 4.72266C15.8837 4.83932 15.9421 4.95599 15.9754 5.08099C16.0087 5.15599 16.0337 5.23099 16.0504 5.29766C16.2754 5.99766 16.1421 6.85599 15.7087 7.93099Z" stroke="#292D32" stroke-width="1.5" stroke-linecap="round" stroke-linejoin="round"/>
<path d="M18.6021 11.8323V13.4573C18.6021 13.624 18.5937 13.7906 18.5854 13.9573C18.4271 16.8656 16.8021 18.3323 13.7187 18.3323H7.21875C7.01875 18.3323 6.81875 18.3156 6.62708 18.2906C3.97708 18.1156 2.56042 16.699 2.38542 14.049C2.36042 13.8573 2.34375 13.6573 2.34375 13.4573V11.8323C2.34375 10.1573 3.36042 8.71563 4.81042 8.09063C5.31042 7.88229 5.84375 7.76562 6.41042 7.76562H14.5437C14.9521 7.76562 15.3521 7.82396 15.7187 7.93229C17.3771 8.44063 18.6021 9.99063 18.6021 11.8323Z" stroke="#292D32" stroke-width="1.5" stroke-linecap="round" stroke-linejoin="round"/>
<path opacity="0.4" d="M6.25898 4.60742L4.80065 8.09076C3.35065 8.71576 2.33398 10.1574 2.33398 11.8324V9.39076C2.33398 7.02409 4.01732 5.04909 6.25898 4.60742Z" stroke="#292D32" stroke-width="1.5" stroke-linecap="round" stroke-linejoin="round"/>
<path opacity="0.4" d="M18.5992 9.39037V11.832C18.5992 9.9987 17.3825 8.44036 15.7158 7.94036C16.1492 6.85703 16.2742 6.00703 16.0658 5.2987C16.0492 5.2237 16.0242 5.1487 15.9908 5.08203C17.5408 5.88203 18.5992 7.5237 18.5992 9.39037Z" stroke="#292D32" stroke-width="1.5" stroke-linecap="round" stroke-linejoin="round"/>
</svg>
