<svg width="174" height="49" viewBox="0 0 174 49" fill="none" xmlns="http://www.w3.org/2000/svg">
<path d="M49.4352 37.718C44.2466 40.8008 30.3426 48.7446 30.3426 48.7446V38.1261C30.3426 33.4229 32.791 29.0623 36.8061 26.6139C37.8873 25.9884 38.912 25.3927 39.883 24.8297C42.0156 26.0599 44.47 27.4688 44.47 27.4688C47.246 29.0831 51.5143 33.2293 49.4352 37.718Z" fill="url(#paint0_linear_12524_2742)"/>
<path d="M49.5097 12.004C41.5659 7.40514 30.3426 0.914856 30.3426 0.914856V11.5305C30.3426 16.2753 32.8357 20.6717 36.9104 23.1081C37.2767 23.3285 38.5128 24.0434 39.883 24.8297C42.0156 26.0599 44.47 27.4688 44.47 27.4688C47.246 29.0831 51.5143 33.2293 49.4352 37.718C49.5395 37.6554 49.6437 37.5929 49.7391 37.5363C49.8135 37.4916 49.888 37.444 49.9625 37.3933C54.2099 34.6501 56.7923 29.9291 56.7923 24.8417C56.7923 19.5785 54.0282 14.7056 49.5097 12.004ZM52.3304 17.6425L52.3423 17.6454C52.3423 17.6454 52.3393 17.6484 52.3304 17.6514V17.6425Z" fill="url(#paint1_linear_12524_2742)"/>
<path d="M7.35706 11.9415C12.5457 8.85868 26.4497 0.914856 26.4497 0.914856V11.5334C26.4497 16.2366 24.0013 20.5972 19.9862 23.0456C18.905 23.6711 17.8803 24.2668 16.9093 24.8297C14.7767 23.5996 12.3223 22.1907 12.3223 22.1907C9.5463 20.5764 5.27802 16.4302 7.35706 11.9415Z" fill="url(#paint2_linear_12524_2742)"/>
<path d="M7.28259 37.6555C15.2264 42.2544 26.4497 48.7446 26.4497 48.7446V38.129C26.4497 33.3842 23.9566 28.9878 19.8819 26.5514C19.5156 26.3309 18.2795 25.6161 16.9093 24.8297C14.7767 23.5996 12.3223 22.1907 12.3223 22.1907C9.5463 20.5764 5.27802 16.4302 7.35706 11.9415C7.25281 12.004 7.14856 12.0666 7.05324 12.1232C6.97878 12.1679 6.90432 12.2155 6.82985 12.2662C2.58242 15.0094 0 19.7304 0 24.8178C0 30.081 2.76411 34.9539 7.28259 37.6555ZM4.46189 32.017L4.44998 32.014C4.44998 32.014 4.45295 32.0111 4.46189 32.0081V32.017Z" fill="url(#paint3_linear_12524_2742)"/>
<path d="M88.0008 28.6262C86.8672 29.9945 85.5296 31.0383 83.9902 31.7531C82.4509 32.4702 80.7296 32.8276 78.824 32.8276C77.1115 32.8276 75.5239 32.5184 74.0591 31.8978C72.5943 31.2773 71.3269 30.4331 70.2568 29.363C69.1868 28.2929 68.3425 27.0255 67.722 25.5607C67.1014 24.0959 66.7922 22.5171 66.7922 20.8287C66.7922 19.1402 67.1014 17.5614 67.722 16.0967C68.3425 14.6319 69.1868 13.3644 70.2568 12.2944C71.3269 11.2243 72.5943 10.3801 74.0591 9.75951C75.5239 9.13895 77.1137 8.82977 78.824 8.82977C80.6638 8.82977 82.2842 9.14992 83.6832 9.7924C85.0844 10.4349 86.3299 11.3646 87.4219 12.5838L84.374 15.5353C83.6898 14.7437 82.9026 14.1122 82.0145 13.6429C81.1265 13.1715 80.0739 12.9369 78.8547 12.9369C77.7847 12.9369 76.7804 13.1232 75.8397 13.4982C74.899 13.8732 74.0789 14.4016 73.3837 15.0858C72.6886 15.7699 72.1382 16.5988 71.7326 17.5724C71.3269 18.546 71.123 19.6314 71.123 20.8287C71.123 22.0259 71.3269 23.1114 71.7326 24.085C72.1382 25.0586 72.6886 25.8874 73.3837 26.5716C74.0789 27.2557 74.8968 27.7864 75.8397 28.1591C76.7804 28.5341 77.7868 28.7205 78.8547 28.7205C80.1375 28.7205 81.2778 28.4574 82.2711 27.9333C83.2644 27.4092 84.1481 26.6659 84.9178 25.7032L88.0008 28.6262ZM100.706 30.262H100.449C99.9581 31.0536 99.2937 31.6786 98.4604 32.1391C97.6249 32.5995 96.6733 32.8298 95.6054 32.8298C93.6165 32.8298 92.1342 32.2202 91.1628 31.001C90.1892 29.7818 89.7024 28.157 89.7024 26.1242V16.5944H93.906V25.6111C93.906 26.7448 94.1582 27.5846 94.6603 28.1284C95.1625 28.6744 95.8948 28.9464 96.8575 28.9464C97.4364 28.9464 97.9429 28.8236 98.3815 28.578C98.82 28.3324 99.195 28.0013 99.5042 27.5846C99.8133 27.168 100.05 26.6746 100.21 26.1089C100.37 25.541 100.451 24.938 100.451 24.2955V16.5944H104.655V32.3145H100.708V30.262H100.706ZM150.662 28.3061C149.978 29.6327 149.019 30.7181 147.789 31.5624C146.559 32.4066 145.024 32.8298 143.187 32.8298C141.967 32.8298 140.849 32.6215 139.834 32.2048C138.819 31.7882 137.941 31.2049 137.202 30.4572C136.466 29.7094 135.887 28.8258 135.47 27.8105C135.054 26.7952 134.845 25.6769 134.845 24.4577C134.845 23.2385 135.054 22.1158 135.47 21.0896C135.887 20.0634 136.466 19.1797 137.202 18.4429C137.941 17.704 138.819 17.1273 139.834 16.7106C140.849 16.294 141.967 16.0857 143.187 16.0857C145.004 16.0857 146.533 16.5023 147.774 17.3378C149.015 18.1732 149.923 19.2521 150.502 20.5787L146.651 22.1816C146.287 21.4536 145.822 20.9032 145.254 20.5305C144.686 20.1555 143.976 19.9691 143.121 19.9691C142.564 19.9691 142.042 20.0765 141.549 20.2892C141.057 20.5019 140.623 20.8024 140.248 21.1861C139.873 21.572 139.579 22.0413 139.365 22.5982C139.152 23.1552 139.044 23.7758 139.044 24.4599C139.044 25.1441 139.152 25.7646 139.365 26.3216C139.579 26.8786 139.873 27.3478 140.248 27.7337C140.623 28.1197 141.055 28.4179 141.549 28.6328C142.042 28.8477 142.564 28.9529 143.121 28.9529C143.998 28.9529 144.741 28.7556 145.351 28.3587C145.96 27.964 146.447 27.3917 146.811 26.6417L150.662 28.3061ZM167.312 28.5297C166.586 29.8125 165.606 30.8519 164.375 31.6413C163.145 32.4329 161.643 32.8276 159.869 32.8276C158.672 32.8276 157.565 32.6193 156.549 32.2026C155.534 31.786 154.65 31.2027 153.903 30.455C153.153 29.7072 152.572 28.8236 152.155 27.8083C151.738 26.793 151.53 25.6747 151.53 24.4555C151.53 23.3219 151.734 22.2474 152.14 21.2322C152.545 20.2169 153.113 19.3288 153.839 18.5701C154.565 17.8114 155.427 17.2062 156.422 16.7567C157.416 16.3072 158.512 16.0835 159.711 16.0835C160.972 16.0835 162.095 16.2918 163.08 16.7084C164.064 17.1251 164.889 17.704 165.551 18.4407C166.213 19.1797 166.717 20.0502 167.059 21.0545C167.401 22.0588 167.573 23.1508 167.573 24.3262V24.7121C167.551 24.8393 167.54 24.9577 167.54 25.0651C167.518 25.1726 167.509 25.2888 167.509 25.4182H155.67C155.756 26.0607 155.933 26.611 156.201 27.0715C156.468 27.532 156.799 27.9157 157.194 28.2271C157.591 28.5363 158.023 28.7622 158.494 28.9003C158.966 29.0385 159.446 29.1086 159.939 29.1086C160.902 29.1086 161.698 28.8893 162.33 28.4508C162.961 28.0122 163.459 27.4618 163.821 26.7996L167.312 28.5297ZM129.067 30.648H128.811C128.32 31.2466 127.725 31.7597 127.03 32.1873C126.335 32.6149 125.443 32.8298 124.351 32.8298C123.537 32.8298 122.772 32.696 122.057 32.4285C121.34 32.161 120.715 31.7926 120.18 31.3211C119.645 30.8497 119.228 30.284 118.928 29.6217C118.627 28.9573 118.478 28.2315 118.478 27.4399C118.478 26.6264 118.638 25.894 118.959 25.2428C119.279 24.5893 119.728 24.0279 120.307 23.5587C120.884 23.0872 121.564 22.7298 122.344 22.4842C123.125 22.2386 123.976 22.1158 124.894 22.1158C125.921 22.1158 126.767 22.1948 127.429 22.357C128.091 22.5171 128.637 22.6838 129.065 22.8548V22.3724C129.065 21.5391 128.734 20.8484 128.07 20.3024C127.407 19.7564 126.583 19.4845 125.6 19.4845C124.147 19.4845 122.917 20.0941 121.91 21.3133L118.862 19.2279C120.531 17.1316 122.807 16.0835 125.695 16.0835C128.133 16.0835 129.995 16.6558 131.278 17.8004C132.56 18.9451 133.203 20.6401 133.203 22.8855V32.3189H129.065V30.648H129.067ZM169.623 9.34288H173.826V32.3145H169.623V9.34288ZM107.604 16.5944H111.551V18.7762H111.808C112.001 18.3903 112.257 18.0373 112.578 17.7171C112.898 17.397 113.257 17.1163 113.652 16.8795C114.049 16.6405 114.476 16.4475 114.935 16.3006C115.395 16.1537 115.849 16.0813 116.299 16.0813C116.856 16.0813 117.331 16.1405 117.726 16.2611C118.123 16.3795 118.459 16.533 118.737 16.7238L117.614 20.4778C117.358 20.3507 117.075 20.2476 116.764 20.173C116.454 20.0985 116.073 20.0612 115.626 20.0612C115.049 20.0612 114.525 20.173 114.053 20.3989C113.582 20.6247 113.183 20.9405 112.849 21.3506C112.518 21.7584 112.262 22.2364 112.08 22.7868C111.898 23.335 111.808 23.9315 111.808 24.5761V32.3167H107.604V16.5944ZM129.067 25.9313C128.576 25.6967 128.067 25.5081 127.543 25.3699C127.019 25.2318 126.447 25.1616 125.826 25.1616C124.822 25.1616 124.046 25.3809 123.5 25.8194C122.954 26.258 122.682 26.7996 122.682 27.4399C122.682 28.0824 122.943 28.5955 123.469 28.9792C123.993 29.3652 124.598 29.556 125.283 29.556C125.839 29.556 126.353 29.4551 126.822 29.2512C127.293 29.0472 127.692 28.7797 128.026 28.4486C128.357 28.1175 128.613 27.7316 128.795 27.293C128.977 26.8566 129.067 26.4005 129.067 25.9313ZM163.494 22.4338C163.472 22.1553 163.382 21.8461 163.222 21.5019C163.062 21.1598 162.827 20.8396 162.516 20.5392C162.207 20.2388 161.821 19.9932 161.36 19.8003C160.9 19.6073 160.349 19.5108 159.709 19.5108C158.81 19.5108 158.019 19.7674 157.334 20.2805C156.65 20.7936 156.168 21.5106 155.889 22.4294H163.494V22.4338Z" fill="#1A1AFF"/>
<path d="M95.2289 48.8298C94.4006 48.8298 93.7284 48.6009 93.2125 48.1431C92.7039 47.6781 92.4351 47.1222 92.406 46.4755H93.6812C93.7248 46.8461 93.8956 47.1331 94.1935 47.3366C94.4986 47.54 94.8402 47.6418 95.218 47.6418C95.5958 47.6418 95.9046 47.5546 96.1444 47.3802C96.3915 47.1985 96.515 46.9587 96.515 46.6608C96.515 46.1377 96.159 45.7598 95.4469 45.5273L94.4986 45.2112C93.2343 44.8116 92.6022 44.0668 92.6022 42.9769C92.6022 42.3157 92.8274 41.7925 93.2779 41.4074C93.7357 41.0223 94.3315 40.8298 95.0654 40.8298C95.8283 40.8298 96.4351 41.0514 96.8856 41.4946C97.3361 41.9306 97.5868 42.4465 97.6376 43.0423H96.3624C96.2825 42.7008 96.119 42.4465 95.8719 42.2794C95.6249 42.105 95.3488 42.0178 95.0436 42.0178C94.7094 42.0178 94.4333 42.1013 94.2153 42.2685C93.9973 42.4283 93.8847 42.6427 93.8774 42.9115C93.8774 43.1876 93.961 43.4129 94.1281 43.5873C94.2952 43.7544 94.5604 43.8961 94.9237 44.0123L95.8828 44.3175C97.1617 44.7317 97.8011 45.4983 97.8011 46.6172C97.8011 47.2712 97.5613 47.8052 97.0818 48.2194C96.6095 48.6263 95.9918 48.8298 95.2289 48.8298Z" fill="black"/>
<path d="M103.198 48.8298C102.275 48.8298 101.53 48.5428 100.963 47.9687C100.397 47.3947 100.113 46.6281 100.113 45.669V40.9606H101.389V45.6908C101.389 46.2939 101.552 46.7626 101.879 47.0968C102.206 47.431 102.646 47.5982 103.198 47.5982C103.75 47.5982 104.186 47.431 104.506 47.0968C104.833 46.7626 104.996 46.2939 104.996 45.6908V40.9606H106.271V45.669C106.271 46.6209 105.984 47.3874 105.41 47.9687C104.836 48.5428 104.099 48.8298 103.198 48.8298Z" fill="black"/>
<path d="M113.45 41.6908C113.952 42.1704 114.202 42.7698 114.202 43.4892C114.202 44.2085 113.952 44.8116 113.45 45.2984C112.949 45.778 112.306 46.0178 111.521 46.0178H110.333V48.699H109.058V40.9606H111.521C112.306 40.9606 112.949 41.204 113.45 41.6908ZM112.556 44.4483C112.818 44.194 112.949 43.8743 112.949 43.4892C112.949 43.1041 112.818 42.788 112.556 42.5409C112.302 42.2866 111.953 42.1595 111.51 42.1595H110.333V44.8189H111.51C111.953 44.8189 112.302 44.6953 112.556 44.4483Z" fill="black"/>
<path d="M116.446 48.699V40.9606H121.1V42.1813H117.721V44.1649H120.446V45.3856H117.721V47.4783H121.1V48.699H116.446Z" fill="black"/>
<path d="M123.547 48.699V40.9606H126.338C127.05 40.9606 127.616 41.1676 128.038 41.5818C128.467 41.9887 128.681 42.5155 128.681 43.1622C128.681 43.7072 128.528 44.1577 128.223 44.5137C127.925 44.8625 127.493 45.0986 126.926 45.2221L129.803 48.699H128.234L125.4 45.2984H124.823V48.699H123.547ZM124.823 44.1867H126.185C126.563 44.1867 126.861 44.0995 127.079 43.9251C127.297 43.7435 127.406 43.4892 127.406 43.1622C127.406 42.8352 127.297 42.5845 127.079 42.4102C126.861 42.2285 126.563 42.1377 126.185 42.1377H124.823V44.1867Z" fill="black"/>
<path d="M133.641 48.699L137.02 40.9606H138.132L141.51 48.699H140.181L139.298 46.6717H135.832L134.96 48.699H133.641ZM137.565 42.6826L136.322 45.5382H138.807L137.565 42.6826Z" fill="black"/>
<path d="M143.488 48.699V40.9606H145.864C147.012 40.9606 147.975 41.3311 148.752 42.0723C149.53 42.8134 149.919 43.7326 149.919 44.8298C149.919 45.927 149.53 46.8461 148.752 47.5873C147.975 48.3284 147.012 48.699 145.864 48.699H143.488ZM144.763 47.511H145.864C146.678 47.511 147.339 47.2567 147.848 46.748C148.364 46.2394 148.622 45.6 148.622 44.8298C148.622 44.0596 148.364 43.4201 147.848 42.9115C147.339 42.4029 146.678 42.1486 145.864 42.1486H144.763V47.511Z" fill="black"/>
<path d="M152.303 40.9606H153.469L156.172 44.6227L158.886 40.9606H160.052V48.699H158.766V43.1513L156.183 46.6608L153.578 43.1404V48.699H152.303V40.9606Z" fill="black"/>
<path d="M162.927 48.699V40.9606H164.202V48.699H162.927Z" fill="black"/>
<path d="M173.826 48.699H172.715L168.355 43.1295V48.699H167.08V40.9606H168.192L172.54 46.5191V40.9606H173.826V48.699Z" fill="black"/>
<defs>
<linearGradient id="paint0_linear_12524_2742" x1="12.0859" y1="40.2153" x2="27.2835" y2="5.38769" gradientUnits="userSpaceOnUse">
<stop stop-color="#CF88FF"/>
<stop offset="1" stop-color="#B569FF"/>
</linearGradient>
<linearGradient id="paint1_linear_12524_2742" x1="-0.000703508" y1="24.8308" x2="56.7917" y2="24.8308" gradientUnits="userSpaceOnUse">
<stop stop-color="#6666FF"/>
<stop offset="1" stop-color="#1919FF"/>
</linearGradient>
<linearGradient id="paint2_linear_12524_2742" x1="44.7026" y1="9.44749" x2="29.505" y2="44.2751" gradientUnits="userSpaceOnUse">
<stop stop-color="#CF88FF"/>
<stop offset="1" stop-color="#B569FF"/>
</linearGradient>
<linearGradient id="paint3_linear_12524_2742" x1="56.7902" y1="24.8308" x2="-0.00217323" y2="24.8308" gradientUnits="userSpaceOnUse">
<stop stop-color="#6666FF"/>
<stop offset="1" stop-color="#1919FF"/>
</linearGradient>
</defs>
</svg>
